<?xml version="1.0" standalone="no"?>
<!DOCTYPE svg PUBLIC "-//W3C//DTD SVG 20010904//EN"
 "http://www.w3.org/TR/2001/REC-SVG-20010904/DTD/svg10.dtd">
<svg version="1.0" xmlns="http://www.w3.org/2000/svg"
 width="512.000000pt" height="512.000000pt" viewBox="0 0 512.000000 512.000000"
 preserveAspectRatio="xMidYMid meet">

<g transform="translate(0.000000,512.000000) scale(0.100000,-0.100000)"
fill="#000000" stroke="none">
<path d="M4000 4640 l0 -320 -320 0 -320 0 0 -160 0 -160 320 0 320 0 0 -320
0 -320 160 0 160 0 0 320 0 320 320 0 320 0 0 160 0 160 -320 0 -320 0 0 320
0 320 -160 0 -160 0 0 -320z"/>
<path d="M1800 3830 c-354 -44 -693 -186 -955 -400 -678 -554 -877 -1486 -484
-2260 178 -348 453 -625 799 -804 528 -272 1141 -274 1670 -5 353 180 629 456
809 809 344 678 240 1477 -270 2055 -261 297 -655 517 -1047 586 -134 23 -404
33 -522 19z m510 -343 c280 -59 524 -188 732 -386 241 -229 389 -501 455 -836
24 -125 24 -405 0 -530 -67 -338 -215 -609 -461 -842 -212 -201 -476 -334
-771 -389 -135 -25 -402 -26 -530 -1 -328 64 -603 212 -826 443 -215 223 -344
476 -406 789 -25 128 -24 395 1 530 117 629 606 1119 1226 1229 131 24 145 24
310 21 114 -3 185 -11 270 -28z"/>
<path d="M1120 2360 l0 -200 200 0 200 0 0 200 0 200 -200 0 -200 0 0 -200z"/>
<path d="M2480 2360 l0 -200 200 0 200 0 0 200 0 200 -200 0 -200 0 0 -200z"/>
<path d="M1033 1666 c103 -267 213 -418 397 -543 174 -118 372 -169 615 -160
256 10 437 78 622 235 123 103 215 248 300 468 4 12 -22 14 -165 14 l-171 0
-33 -62 c-40 -76 -139 -184 -216 -234 -31 -21 -95 -52 -142 -68 -81 -29 -92
-31 -240 -31 -142 0 -161 3 -230 27 -41 14 -97 39 -125 54 -72 40 -204 176
-243 252 l-33 62 -171 0 c-143 0 -169 -2 -165 -14z"/>
</g>
</svg>
