<svg width="215" height="58" viewBox="0 0 215 58" fill="none" xmlns="http://www.w3.org/2000/svg">
<rect x="198" y="31.5402" width="10" height="11.3929" fill="url(#paint0_linear_214_888)"/>
<path d="M197 33.0937C198.083 31.0223 199.167 31.0223 200.25 33.0937C201.333 35.1652 202.417 35.1652 203.5 33.0937C204.583 31.0223 205.667 31.0223 206.75 33.0937C207.833 35.1652 208.917 35.1652 210 33.0937" stroke="white"/>
<path d="M199.666 30.1973C199.883 30.1973 200.112 30.1449 200.267 30.3253C200.337 30.4071 200.055 30.3119 199.951 30.2985C199.733 30.2707 199.553 30.1623 199.435 29.9712C199.36 29.8506 199.194 29.5491 199.155 29.8552C199.127 30.0749 199.183 30.2785 199.247 30.4859C199.296 30.6481 199.313 30.8218 199.395 30.9724C199.56 31.2769 200.085 30.7326 200.172 30.5573C200.277 30.3461 200.183 29.6072 200.183 29.8447C200.183 30.1879 200.232 30.5179 200.271 30.8578C200.284 30.9727 200.283 31.0896 200.307 31.203C200.322 31.2762 200.271 31.0483 200.267 31.0304C200.198 30.7591 200.172 30.4661 200.06 30.2092C200.041 30.167 200.028 30.1308 200.028 30.0843C200.028 30.0364 200.047 30.1787 200.065 30.2226C200.082 30.2607 200.081 30.2839 200.08 30.2211C200.078 30.0857 200.063 29.9544 200.027 29.8239C200.016 29.7857 199.877 29.3268 199.834 29.3464C199.722 29.398 199.718 29.8131 199.718 29.9161C199.718 30.1348 199.718 30.3535 199.718 30.5722C199.718 30.8187 199.753 31.0463 199.86 31.2684C199.959 31.474 200.101 31.6532 200.203 31.8576C200.264 31.9795 200.395 32.1429 200.508 32.2176C200.665 32.3215 200.735 32.4773 200.804 32.6549C200.927 32.9749 201.072 33.3832 201.321 33.6249C201.514 33.813 201.135 33.1092 201.022 32.8602C200.828 32.431 200.583 32.0098 200.442 31.557C200.371 31.3288 200.314 31.0998 200.261 30.8668C200.211 30.6472 200.235 30.4097 200.235 30.1854C200.235 29.8057 200.442 29.498 200.551 29.147C200.554 29.1357 200.605 28.9719 200.617 29.0042C200.653 29.1016 200.622 29.2658 200.624 29.3657C200.632 29.7572 200.649 30.1477 200.649 30.5395C200.649 30.9593 200.594 31.4385 200.726 31.8427C200.817 32.1208 200.962 32.3687 201.051 32.646C201.119 32.8565 201.219 33.0915 201.373 33.25C201.469 33.3497 201.563 33.4285 201.671 33.5118C201.706 33.5386 201.76 33.5719 201.785 33.61C201.801 33.6356 201.786 33.5485 201.786 33.5178C201.786 33.4196 201.786 33.3214 201.786 33.2232C201.786 32.8803 201.735 32.5364 201.684 32.1982C201.597 31.6214 201.447 31.0602 201.321 30.4919C201.286 30.3369 201.288 30.1745 201.243 30.0218C201.21 29.9092 201.226 29.7852 201.179 29.6766C201.149 29.61 201.157 29.4952 201.167 29.4237C201.176 29.3581 201.363 29.4848 201.398 29.5011C201.647 29.6163 202.021 29.5788 202.283 29.5814C202.618 29.5848 203.084 29.5486 203.398 29.7004C203.545 29.7715 203.751 29.6685 203.88 29.6082C204.506 29.3166 205.255 29.2869 205.93 29.2869C206.136 29.2869 206.248 29.5011 206.44 29.5011" stroke="white" stroke-linecap="round"/>
<path d="M206.44 29.5011C206.839 29.5011 207.329 29.4197 207.707 29.5873C207.867 29.6583 207.399 29.7552 207.359 29.7629C206.861 29.8596 206.322 29.8992 205.816 29.9027C205.379 29.9058 204.959 29.9067 204.527 29.989C204.15 30.0607 203.774 30.1177 203.395 30.1705C203.044 30.2192 202.719 30.2508 202.366 30.2508C202.181 30.2508 202.05 30.3752 202.225 30.5603C202.456 30.8033 202.872 30.7689 203.162 30.7269C203.747 30.6422 204.325 30.5079 204.909 30.4175C205.486 30.328 206.05 30.0535 206.635 30.0366C206.921 30.0284 207.23 30.048 207.474 30.2107C207.684 30.3506 207.603 30.6914 207.603 30.9203C207.603 31.157 207.577 31.3925 207.577 31.6314C207.577 32.0825 207.603 32.5404 207.603 32.9956C207.603 33.0218 207.618 33.1328 207.589 33.1414C207.452 33.1819 207.133 32.5861 207.088 32.4972C206.908 32.1457 206.845 31.7564 206.609 31.4425C206.458 31.2407 206.306 31.0734 206.131 30.892C206.108 30.8683 205.923 30.6991 205.995 30.6793C206.151 30.6361 206.329 30.6525 206.489 30.6525C206.705 30.6525 206.908 30.6544 207.112 30.7388C207.13 30.7464 207.434 30.9069 207.405 30.9143C207.306 30.94 207.167 30.8827 207.069 30.8667C206.91 30.8408 206.749 30.8051 206.589 30.7923C206.12 30.755 205.638 30.7864 205.167 30.7864C205.022 30.7864 204.917 30.8965 204.785 30.9471C204.581 31.0255 204.395 31.15 204.185 31.2148C203.965 31.2824 203.714 31.3325 203.487 31.3487C203.285 31.3632 203.143 31.5094 202.944 31.5094C202.691 31.5094 202.663 31.2659 202.452 31.1821C202.39 31.1571 202.298 31.0533 202.329 31.1791C202.394 31.4396 202.432 31.7019 202.432 31.9706C202.432 32.2855 202.432 32.6004 202.432 32.9152C202.432 33.0531 202.467 33.2321 202.391 33.3467C202.354 33.4009 202.267 33.5683 202.188 33.5683C202.13 33.5683 202.318 33.2809 202.33 33.2634C202.612 32.8702 202.936 32.4882 203.169 32.0613C203.229 31.9514 203.311 31.8394 203.386 31.74C203.427 31.6852 203.48 31.652 203.518 31.6031C203.579 31.5247 203.596 31.7289 203.594 31.7504C203.576 31.9598 203.372 32.1848 203.261 32.3514C203.062 32.65 202.804 32.9151 202.559 33.1696C202.392 33.3425 202.216 33.5869 202.019 33.7186C201.895 33.8007 201.915 33.943 201.915 34.0801" stroke="white" stroke-linecap="round"/>
<rect x="199.5" y="18.1072" width="6" height="6.25" fill="black" stroke="black"/>
<path d="M3.034 45V23.598H8.282V27.165H8.487C8.897 26.0443 9.553 25.0877 10.455 24.295C11.357 23.5023 12.6143 23.106 14.227 23.106C15.703 23.106 16.974 23.4613 18.04 24.172C19.106 24.8827 19.8987 25.9623 20.418 27.411H20.5C20.8827 26.2083 21.6343 25.197 22.755 24.377C23.903 23.5297 25.338 23.106 27.06 23.106C29.1647 23.106 30.7773 23.8303 31.898 25.279C33.046 26.7277 33.62 28.7913 33.62 31.47V45H28.372V32.003C28.372 28.9417 27.224 27.411 24.928 27.411C24.4087 27.411 23.903 27.493 23.411 27.657C22.9463 27.7937 22.5227 28.0123 22.14 28.313C21.7847 28.5863 21.4977 28.9417 21.279 29.379C21.0603 29.789 20.951 30.281 20.951 30.855V45H15.703V32.003C15.703 28.9417 14.555 27.411 12.259 27.411C11.767 27.411 11.275 27.493 10.783 27.657C10.3183 27.7937 9.89467 28.0123 9.512 28.313C9.15667 28.5863 8.856 28.9417 8.61 29.379C8.39133 29.789 8.282 30.281 8.282 30.855V45H3.034ZM52.0165 45.492C50.4858 45.492 49.1055 45.2323 47.8755 44.713C46.6728 44.1937 45.6342 43.442 44.7595 42.458C43.9122 41.474 43.2562 40.2987 42.7915 38.932C42.3268 37.538 42.0945 35.98 42.0945 34.258C42.0945 32.536 42.3268 30.9917 42.7915 29.625C43.2562 28.2583 43.9122 27.0967 44.7595 26.14C45.6342 25.156 46.6728 24.4043 47.8755 23.885C49.1055 23.3657 50.4858 23.106 52.0165 23.106C53.5472 23.106 54.9275 23.3657 56.1575 23.885C57.3875 24.4043 58.4262 25.156 59.2735 26.14C60.1482 27.0967 60.8178 28.2583 61.2825 29.625C61.7472 30.9917 61.9795 32.536 61.9795 34.258C61.9795 35.98 61.7472 37.538 61.2825 38.932C60.8178 40.2987 60.1482 41.474 59.2735 42.458C58.4262 43.442 57.3875 44.1937 56.1575 44.713C54.9275 45.2323 53.5472 45.492 52.0165 45.492ZM52.0165 41.269C53.4105 41.269 54.5038 40.8453 55.2965 39.998C56.0892 39.1507 56.4855 37.907 56.4855 36.267V32.29C56.4855 30.6773 56.0892 29.4473 55.2965 28.6C54.5038 27.7527 53.4105 27.329 52.0165 27.329C50.6498 27.329 49.5702 27.7527 48.7775 28.6C47.9848 29.4473 47.5885 30.6773 47.5885 32.29V36.267C47.5885 37.907 47.9848 39.1507 48.7775 39.998C49.5702 40.8453 50.6498 41.269 52.0165 41.269ZM77.743 45.492C75.693 45.492 73.971 45.1503 72.577 44.467C71.183 43.7563 69.953 42.786 68.887 41.556L72.085 38.44C72.8777 39.342 73.7387 40.0527 74.668 40.572C75.6247 41.0913 76.718 41.351 77.948 41.351C79.2054 41.351 80.1074 41.1323 80.654 40.695C81.228 40.2577 81.515 39.6563 81.515 38.891C81.515 38.2623 81.31 37.7703 80.9 37.415C80.5174 37.0323 79.8477 36.7727 78.891 36.636L76.759 36.349C74.4357 36.0483 72.659 35.3923 71.429 34.381C70.2264 33.3423 69.625 31.839 69.625 29.871C69.625 28.8323 69.8164 27.903 70.199 27.083C70.5817 26.2357 71.1284 25.525 71.839 24.951C72.5497 24.3497 73.397 23.8987 74.381 23.598C75.3924 23.27 76.513 23.106 77.743 23.106C78.7817 23.106 79.6974 23.188 80.49 23.352C81.31 23.4887 82.048 23.7073 82.704 24.008C83.36 24.2813 83.9614 24.6367 84.508 25.074C85.0547 25.484 85.5877 25.9487 86.107 26.468L83.032 29.543C82.4034 28.887 81.6517 28.3403 80.777 27.903C79.9024 27.4657 78.9457 27.247 77.907 27.247C76.759 27.247 75.9254 27.452 75.406 27.862C74.914 28.272 74.668 28.805 74.668 29.461C74.668 30.1717 74.873 30.7183 75.283 31.101C75.7204 31.4563 76.4447 31.716 77.456 31.88L79.629 32.167C84.2484 32.823 86.558 34.9277 86.558 38.481C86.558 39.5197 86.3394 40.4763 85.902 41.351C85.492 42.1983 84.9044 42.9363 84.139 43.565C83.3737 44.1663 82.4444 44.6447 81.351 45C80.285 45.328 79.0824 45.492 77.743 45.492ZM111.036 45C109.888 45 108.972 44.672 108.289 44.016C107.633 43.3327 107.223 42.4307 107.059 41.31H106.813C106.458 42.704 105.733 43.7563 104.64 44.467C103.547 45.1503 102.194 45.492 100.581 45.492C98.3943 45.492 96.7133 44.918 95.538 43.77C94.3627 42.622 93.775 41.0913 93.775 39.178C93.775 36.964 94.5677 35.324 96.153 34.258C97.7383 33.1647 99.9933 32.618 102.918 32.618H106.567V31.06C106.567 29.8573 106.253 28.928 105.624 28.272C104.995 27.616 103.984 27.288 102.59 27.288C101.36 27.288 100.362 27.5613 99.597 28.108C98.859 28.6273 98.2303 29.256 97.711 29.994L94.595 27.206C95.3877 25.976 96.44 24.992 97.752 24.254C99.064 23.4887 100.8 23.106 102.959 23.106C105.856 23.106 108.057 23.762 109.56 25.074C111.063 26.386 111.815 28.272 111.815 30.732V40.818H113.947V45H111.036ZM102.344 41.679C103.519 41.679 104.517 41.4193 105.337 40.9C106.157 40.3807 106.567 39.6153 106.567 38.604V35.775H103.205C100.472 35.775 99.105 36.6497 99.105 38.399V39.096C99.105 39.9707 99.3783 40.6267 99.925 41.064C100.499 41.474 101.305 41.679 102.344 41.679ZM127.542 45C125.738 45 124.413 44.549 123.565 43.647C122.718 42.745 122.294 41.474 122.294 39.834V14.66H127.542V40.818H130.371V45H127.542ZM154.19 45C153.042 45 152.126 44.672 151.443 44.016C150.787 43.3327 150.377 42.4307 150.213 41.31H149.967C149.612 42.704 148.887 43.7563 147.794 44.467C146.701 45.1503 145.348 45.492 143.735 45.492C141.548 45.492 139.867 44.918 138.692 43.77C137.517 42.622 136.929 41.0913 136.929 39.178C136.929 36.964 137.722 35.324 139.307 34.258C140.892 33.1647 143.147 32.618 146.072 32.618H149.721V31.06C149.721 29.8573 149.407 28.928 148.778 28.272C148.149 27.616 147.138 27.288 145.744 27.288C144.514 27.288 143.516 27.5613 142.751 28.108C142.013 28.6273 141.384 29.256 140.865 29.994L137.749 27.206C138.542 25.976 139.594 24.992 140.906 24.254C142.218 23.4887 143.954 23.106 146.113 23.106C149.01 23.106 151.211 23.762 152.714 25.074C154.217 26.386 154.969 28.272 154.969 30.732V40.818H157.101V45H154.19ZM145.498 41.679C146.673 41.679 147.671 41.4193 148.491 40.9C149.311 40.3807 149.721 39.6153 149.721 38.604V35.775H146.359C143.626 35.775 142.259 36.6497 142.259 38.399V39.096C142.259 39.9707 142.532 40.6267 143.079 41.064C143.653 41.474 144.459 41.679 145.498 41.679ZM165.448 14.66H170.696V27.124H170.86C171.243 25.894 171.967 24.9237 173.033 24.213C174.099 23.475 175.343 23.106 176.764 23.106C179.498 23.106 181.575 24.0763 182.996 26.017C184.445 27.9303 185.169 30.6773 185.169 34.258C185.169 37.866 184.445 40.6403 182.996 42.581C181.575 44.5217 179.498 45.492 176.764 45.492C175.343 45.492 174.099 45.123 173.033 44.385C171.995 43.647 171.27 42.663 170.86 41.433H170.696V45H165.448V14.66ZM175.083 41.146C176.45 41.146 177.557 40.695 178.404 39.793C179.252 38.891 179.675 37.6747 179.675 36.144V32.454C179.675 30.9233 179.252 29.707 178.404 28.805C177.557 27.8757 176.45 27.411 175.083 27.411C173.826 27.411 172.774 27.7253 171.926 28.354C171.106 28.9827 170.696 29.8163 170.696 30.855V37.661C170.696 38.7817 171.106 39.6427 171.926 40.244C172.774 40.8453 173.826 41.146 175.083 41.146ZM202.619 45.492C201.089 45.492 199.708 45.2323 198.478 44.713C197.276 44.1937 196.237 43.442 195.362 42.458C194.515 41.474 193.859 40.2987 193.394 38.932C192.93 37.538 192.697 35.98 192.697 34.258C192.697 32.536 192.93 30.9917 193.394 29.625C193.859 28.2583 194.515 27.0967 195.362 26.14C196.237 25.156 197.276 24.4043 198.478 23.885C199.708 23.3657 201.089 23.106 202.619 23.106C204.15 23.106 205.53 23.3657 206.76 23.885C207.99 24.4043 209.029 25.156 209.876 26.14C210.751 27.0967 211.421 28.2583 211.885 29.625C212.35 30.9917 212.582 32.536 212.582 34.258C212.582 35.98 212.35 37.538 211.885 38.932C211.421 40.2987 210.751 41.474 209.876 42.458C209.029 43.442 207.99 44.1937 206.76 44.713C205.53 45.2323 204.15 45.492 202.619 45.492ZM202.619 41.269C204.013 41.269 205.107 40.8453 205.899 39.998C206.692 39.1507 207.088 37.907 207.088 36.267V32.29C207.088 30.6773 206.692 29.4473 205.899 28.6C205.107 27.7527 204.013 27.329 202.619 27.329C201.253 27.329 200.173 27.7527 199.38 28.6C198.588 29.4473 198.191 30.6773 198.191 32.29V36.267C198.191 37.907 198.588 39.1507 199.38 39.998C200.173 40.8453 201.253 41.269 202.619 41.269Z" fill="black"/>
<defs>
<linearGradient id="paint0_linear_214_888" x1="203" y1="31.5402" x2="203" y2="42.933" gradientUnits="userSpaceOnUse">
<stop stop-color="#49E2DB"/>
<stop offset="1" stop-color="#AE14BB"/>
</linearGradient>
</defs>
</svg>
